# xmcd
#
# Track frame offsets:
#	150
#	14421
#	26244
#	39004
#	54894
#	73943
#	94072
#	114827
#	130977
#
# Disc length: 1959 seconds
#
# Revision: 0
# Processed by: cddbd v1.4PL0 Copyright (c) Steve Scherf et al.
# Submitted via: EasyCDDAExtractor 5.0.5.1
#
DISCID=6e07a509
DTITLE=Various Artist - Wonderful Johnson - promo copy
DYEAR=2003
DGENRE=Country
TTITLE0=Wonderful Johnson - add 2-4-2003 - sugg Indiego - i want your number
TTITLE1=Wonderful Johnson - add 2-4-2003 - sugg Indiego - she wants more
TTITLE2=Wonderful Johnson - add 2-4-2003 - connection
TTITLE3=Wonderful Johnson - add 2-4-2003 - sugg Indiego - 17 yrs down
TTITLE4=Wonderful Johnson - add 2-4-2003 - undone
TTITLE5=Wonderful Johnson - add 2-4-2003 - cry
TTITLE6=Wonderful Johnson - add 2-4-2003 - rescue me
TTITLE7=Wonderful Johnson - add 2-4-2003 - don't lay me down
TTITLE8=Wonderful Johnson - add 2-4-2003 - she said
EXTD=
EXTT0=
EXTT1=
EXTT2=
EXTT3=
EXTT4=
EXTT5=
EXTT6=
EXTT7=
EXTT8=
PLAYORDER=
